<svg width="478" height="110" viewBox="0 0 478 110" fill="none" xmlns="http://www.w3.org/2000/svg">
<path d="M6.9 78.4531C5.4 68.6531 6.6 58.0531 6.2 48.1531C5.9 40.4531 3.9 28.9531 8.7 22.2531C13.4 15.8531 25.2 15.3531 32.4 15.8531C40.8 16.3531 49.8 19.2531 54.3 26.9531C63.4 42.1531 57.1 63.4531 45.8 75.2531C38.6 82.7531 9.6 95.5531 6.9 78.4531ZM27.2 64.1531C32.9 65.4531 39 54.1531 39.9 50.0531C41.3 43.6531 36.6 38.6531 30.6 37.2531C22.7 35.2531 24.4 42.0531 24.3 48.0531C24.3 51.7531 22.1 63.0531 27.2 64.1531ZM88.5523 84.1531C86.0523 88.7531 78.0523 88.2531 74.2523 82.5531C69.5523 75.3531 73.3523 60.7531 72.4523 52.6531C71.4523 44.6531 64.0523 38.1531 62.0523 29.9531C60.1523 22.5531 65.0523 15.6531 73.1523 19.6531C80.0523 23.0531 81.0523 32.3531 83.9523 38.6531C87.3523 33.0531 92.6523 17.1531 101.652 21.4531C107.452 24.1531 103.852 32.6531 101.952 36.7531C100.152 40.5531 97.8523 44.0531 95.5523 47.4531C91.9523 52.6531 91.7523 54.2531 92.5523 60.6531C93.3523 70.8531 93.9523 78.9531 88.5523 84.1531ZM119.779 85.5531C115.379 88.6531 110.779 86.1531 108.679 81.7531C104.779 73.3531 106.979 58.2531 107.679 49.3531C108.079 45.2531 108.079 38.0531 111.179 34.7531C115.479 30.2531 121.279 33.6531 123.579 38.5531C128.579 49.3531 126.079 65.0531 123.879 76.2531C123.179 79.6531 122.779 83.3531 119.779 85.5531ZM106.679 23.8531C104.979 17.9531 109.879 10.9531 115.679 9.35312C118.779 8.45312 127.579 10.3531 125.979 15.3531C129.179 25.4531 110.779 37.6531 106.679 23.8531ZM132.723 85.0531C128.123 80.0531 129.823 67.6531 130.123 61.4531C130.623 52.5531 129.123 31.3531 138.523 26.6531C144.423 23.7531 150.923 27.9531 153.923 32.9531C157.723 39.0531 159.923 45.8531 163.923 52.0531C163.523 45.5531 161.423 34.9531 166.523 29.5531C171.423 24.4531 178.523 27.2531 179.423 33.9531C181.323 46.3531 182.923 66.7531 177.223 78.8531C168.123 98.4531 151.723 64.2531 147.623 57.5531C146.623 61.6531 142.223 95.1531 132.723 85.0531ZM192.311 79.0531C179.911 66.6531 183.111 45.7531 193.011 32.9531C197.811 26.6531 212.111 13.1531 220.311 21.0531C225.911 26.5531 225.011 34.1531 218.011 36.2531C208.911 38.9531 201.211 46.5531 200.711 56.5531C200.511 61.6531 202.511 67.0531 207.211 69.4531C209.711 70.6531 215.411 71.6531 217.311 68.6531C219.711 64.7531 214.411 65.6531 212.511 63.5531C210.311 61.2531 210.211 56.0531 211.611 53.2531C216.011 44.3531 232.111 50.2531 234.411 58.3531C241.711 84.3531 209.311 95.9531 192.311 79.0531ZM317.808 86.4531C313.608 84.8531 313.308 79.1531 313.108 75.4531C312.608 67.9531 313.008 60.5531 312.008 53.0531C308.208 56.8531 302.508 64.6531 296.508 64.2531C290.208 63.8531 286.608 54.0531 283.808 49.4531C279.308 59.6531 284.008 73.6531 276.908 83.2531C273.708 87.5531 268.908 87.5531 265.808 83.1531C262.308 78.0531 263.708 70.7531 264.408 65.0531C265.208 57.0531 266.408 49.0531 267.608 41.1531C268.308 36.4531 268.508 30.6531 271.608 26.7531C280.408 16.0531 292.208 31.2531 297.008 38.1531C301.408 31.2531 311.708 15.1531 321.608 23.8531C325.308 27.0531 325.608 32.9531 326.408 37.4531C327.708 44.8531 328.708 52.2531 329.008 59.6531C329.308 65.2531 330.408 90.9531 317.808 86.4531ZM338.36 86.3531C328.06 83.3531 333.26 70.7531 335.06 63.3531C337.46 53.4531 340.46 43.6531 343.66 33.9531C346.36 25.7531 350.96 20.1531 360.26 19.8531C370.76 19.6531 372.66 31.9531 375.46 39.9531L387.16 72.8531C388.76 77.2531 389.16 80.5531 385.26 83.7531C381.36 86.8531 377.66 86.6531 374.86 82.5531C372.86 79.6531 372.36 73.2531 369.66 70.9531C369.16 70.5531 355.16 69.4531 353.56 70.6531C350.66 73.0531 351.46 80.9531 348.86 84.1531C346.46 87.1531 341.96 87.4531 338.36 86.3531ZM358.16 56.4531C359.96 56.1531 361.76 55.7531 363.56 55.4531C362.66 52.7531 361.76 50.1531 360.96 47.4531C360.06 50.4531 359.06 53.4531 358.16 56.4531ZM406.632 86.9531C398.832 87.0531 398.532 78.2531 398.832 72.5531C399.232 61.3531 400.432 50.3531 400.032 39.0531C394.632 39.3531 386.932 40.1531 384.132 34.2531C382.232 30.4531 383.632 25.6531 387.632 23.8531C392.232 21.7531 401.332 24.2531 406.432 24.5531C412.132 24.8531 419.032 23.9531 424.332 26.4531C427.932 28.1531 430.432 32.9531 427.632 36.4531C424.932 39.9531 417.332 39.1531 413.332 39.1531C414.532 47.1531 422.632 86.6531 406.632 86.9531ZM445.405 86.7531C441.405 86.8531 436.105 87.7531 432.805 84.5531C429.205 81.0531 430.505 74.5531 430.705 70.0531C431.005 64.3531 431.205 58.6531 431.505 52.9531C431.805 46.2531 432.105 39.5531 432.305 32.8531C432.505 29.1531 431.805 24.1531 433.105 20.5531C436.105 12.1531 454.105 15.5531 460.905 16.5531C465.505 17.2531 469.905 18.1531 470.605 23.4531C471.105 27.2531 469.305 30.5531 465.805 31.9531C461.805 33.5531 457.705 30.9531 453.905 31.8531C451.405 32.3531 448.205 37.0531 451.705 39.5531C454.305 41.4531 461.205 39.2531 464.505 40.4531C467.905 41.7531 469.105 43.7531 469.405 47.2531C469.905 51.3531 468.905 56.3531 464.505 57.6531C460.505 58.7531 455.205 54.9531 451.805 58.1531C446.105 63.4531 455.905 66.5531 459.705 66.7531C463.905 66.9531 469.705 65.7531 473.405 68.4531C476.705 70.9531 476.005 76.9531 474.805 80.2531C472.805 85.2531 469.005 85.9531 463.905 86.2531C457.805 86.5531 451.605 86.4531 445.405 86.7531Z" fill="white"/>
<path d="M3.9 75.5C2.4 65.7 3.6 55.1 3.2 45.2C2.9 37.5 0.9 26 5.7 19.3C10.4 12.9 22.2 12.4 29.4 12.9C37.8 13.4 46.8 16.3 51.3 24C60.4 39.2 54.1 60.5 42.8 72.3C35.6 79.8 6.6 92.6 3.9 75.5ZM24.2 61.2C29.9 62.5 36 51.2 36.9 47.1C38.3 40.7 33.6 35.7 27.6 34.3C19.7 32.3 21.4 39.1 21.3 45.1C21.3 48.8 19.1 60.1 24.2 61.2ZM85.5523 81.2C83.0523 85.8 75.0523 85.3 71.2523 79.6C66.5523 72.4 70.3523 57.8 69.4523 49.7C68.4523 41.7 61.0523 35.2 59.0523 27C57.1523 19.6 62.0523 12.7 70.1523 16.7C77.0523 20.1 78.0523 29.4 80.9523 35.7C84.3523 30.1 89.6523 14.2 98.6523 18.5C104.452 21.2 100.852 29.7 98.9523 33.8C97.1523 37.6 94.8523 41.1 92.5523 44.5C88.9523 49.7 88.7523 51.3 89.5523 57.7C90.3523 67.9 90.9523 76 85.5523 81.2ZM116.779 82.6C112.379 85.7 107.779 83.2 105.679 78.8C101.779 70.4 103.979 55.3 104.679 46.4C105.079 42.3 105.079 35.1 108.179 31.8C112.479 27.3 118.279 30.7 120.579 35.6C125.579 46.4 123.079 62.1 120.879 73.3C120.179 76.7 119.779 80.4 116.779 82.6ZM103.679 20.9C101.979 15 106.879 7.99999 112.679 6.4C115.779 5.5 124.579 7.4 122.979 12.4C126.179 22.5 107.779 34.7 103.679 20.9ZM129.723 82.1C125.123 77.1 126.823 64.7 127.123 58.5C127.623 49.6 126.123 28.4 135.523 23.7C141.423 20.8 147.923 25 150.923 30C154.723 36.1 156.923 42.9 160.923 49.1C160.523 42.6 158.423 32 163.523 26.6C168.423 21.5 175.523 24.3 176.423 31C178.323 43.4 179.923 63.8 174.223 75.9C165.123 95.5 148.723 61.3 144.623 54.6C143.623 58.7 139.223 92.2 129.723 82.1ZM189.311 76.1C176.911 63.7 180.111 42.8 190.011 30C194.811 23.7 209.111 10.2 217.311 18.1C222.911 23.6 222.011 31.2 215.011 33.3C205.911 36 198.211 43.6 197.711 53.6C197.511 58.7 199.511 64.1 204.211 66.5C206.711 67.7 212.411 68.7 214.311 65.7C216.711 61.8 211.411 62.7 209.511 60.6C207.311 58.3 207.211 53.1 208.611 50.3C213.011 41.4 229.111 47.3 231.411 55.4C238.711 81.4 206.311 93 189.311 76.1ZM314.808 83.5C310.608 81.9 310.308 76.2 310.108 72.5C309.608 65 310.008 57.6 309.008 50.1C305.208 53.9 299.508 61.7 293.508 61.3C287.208 60.9 283.608 51.1 280.808 46.5C276.308 56.7 281.008 70.7 273.908 80.3C270.708 84.6 265.908 84.6 262.808 80.2C259.308 75.1 260.708 67.8 261.408 62.1C262.208 54.1 263.408 46.1 264.608 38.2C265.308 33.5 265.508 27.7 268.608 23.8C277.408 13.1 289.208 28.3 294.008 35.2C298.408 28.3 308.708 12.2 318.608 20.9C322.308 24.1 322.608 30 323.408 34.5C324.708 41.9 325.708 49.3 326.008 56.7C326.308 62.3 327.408 88 314.808 83.5ZM335.36 83.4C325.06 80.4 330.26 67.8 332.06 60.4C334.46 50.5 337.46 40.7 340.66 31C343.36 22.8 347.96 17.2 357.26 16.9C367.76 16.7 369.66 29 372.46 37L384.16 69.9C385.76 74.3 386.16 77.6 382.26 80.8C378.36 83.9 374.66 83.7 371.86 79.6C369.86 76.7 369.36 70.3 366.66 68C366.16 67.6 352.16 66.5 350.56 67.7C347.66 70.1 348.46 78 345.86 81.2C343.46 84.2 338.96 84.5 335.36 83.4ZM355.16 53.5C356.96 53.2 358.76 52.8 360.56 52.5C359.66 49.8 358.76 47.2 357.96 44.5C357.06 47.5 356.06 50.5 355.16 53.5ZM403.632 84C395.832 84.1 395.532 75.3 395.832 69.6C396.232 58.4 397.432 47.4 397.032 36.1C391.632 36.4 383.932 37.2 381.132 31.3C379.232 27.5 380.632 22.7 384.632 20.9C389.232 18.8 398.332 21.3 403.432 21.6C409.132 21.9 416.032 21 421.332 23.5C424.932 25.2 427.432 30 424.632 33.5C421.932 37 414.332 36.2 410.332 36.2C411.532 44.2 419.632 83.7 403.632 84ZM442.405 83.8C438.405 83.9 433.105 84.8 429.805 81.6C426.205 78.1 427.505 71.6 427.705 67.1C428.005 61.4 428.205 55.7 428.505 50C428.805 43.3 429.105 36.6 429.305 29.9C429.505 26.2 428.805 21.2 430.105 17.6C433.105 9.2 451.105 12.6 457.905 13.6C462.505 14.3 466.905 15.2 467.605 20.5C468.105 24.3 466.305 27.6 462.805 29C458.805 30.6 454.705 28 450.905 28.9C448.405 29.4 445.205 34.1 448.705 36.6C451.305 38.5 458.205 36.3 461.505 37.5C464.905 38.8 466.105 40.8 466.405 44.3C466.905 48.4 465.905 53.4 461.505 54.7C457.505 55.8 452.205 52 448.805 55.2C443.105 60.5 452.905 63.6 456.705 63.8C460.905 64 466.705 62.8 470.405 65.5C473.705 68 473.005 74 471.805 77.3C469.805 82.3 466.005 83 460.905 83.3C454.805 83.6 448.605 83.5 442.405 83.8Z" fill="#FD835F"/>
</svg>
