<svg width="36" height="36" viewBox="0 0 36 36" fill="none" xmlns="http://www.w3.org/2000/svg">
<rect x="0.25" y="0.25" width="35.5" height="35.5" rx="17.75" fill="white" stroke="#B8B8C7" stroke-width="0.5"/>
<g clip-path="url(#clip0_1486_5550)">
<path d="M26.815 18.7201C26.815 17.9525 26.7525 17.3924 26.6174 16.8115H17.8301V20.276H22.988C22.8841 21.1369 22.3225 22.4335 21.0746 23.3048L21.0571 23.4208L23.8355 25.5677L24.028 25.5869C25.7958 23.9583 26.815 21.5622 26.815 18.7201Z" fill="#4285F4"/>
<path d="M17.8297 27.848C20.3567 27.848 22.4781 27.0181 24.0277 25.5867L21.0743 23.3047C20.2839 23.8544 19.2232 24.2382 17.8297 24.2382C15.3547 24.2382 13.2541 22.6098 12.5053 20.3589L12.3955 20.3682L9.50653 22.5983L9.46875 22.7031C11.0078 25.7526 14.1692 27.848 17.8297 27.848Z" fill="#34A853"/>
<path d="M12.5056 20.3592C12.308 19.7784 12.1936 19.156 12.1936 18.5129C12.1936 17.8697 12.308 17.2474 12.4952 16.6665L12.4899 16.5428L9.56471 14.2769L9.469 14.3223C8.83468 15.5878 8.4707 17.0088 8.4707 18.5129C8.4707 20.0169 8.83468 21.438 9.469 22.7034L12.5056 20.3592Z" fill="#FBBC05"/>
<path d="M17.8302 12.7869C19.5877 12.7869 20.7731 13.5441 21.4491 14.1769L24.0905 11.6045C22.4683 10.1004 20.3572 9.17725 17.8302 9.17725C14.1697 9.17725 11.0083 11.2725 9.46924 14.3221L12.4954 16.6664C13.2546 14.4155 15.3552 12.7869 17.8302 12.7869Z" fill="#EB4335"/>
</g>
<defs>
<clipPath id="clip0_1486_5550">
<rect width="18.3529" height="18.7353" fill="white" transform="translate(8.4707 9.17725)"/>
</clipPath>
</defs>
</svg>
