<svg width="16" height="16" viewBox="0 0 16 16" fill="none" xmlns="http://www.w3.org/2000/svg">
<path d="M8 2.6665C4.36364 2.6665 1.25818 4.92832 0 8.12105C1.25818 11.3138 4.36364 13.5756 8 13.5756C11.6364 13.5756 14.7418 11.3138 16 8.12105C14.7418 4.92832 11.6364 2.6665 8 2.6665ZM8 11.7574C5.99273 11.7574 4.36364 10.1283 4.36364 8.12105C4.36364 6.11378 5.99273 4.48469 8 4.48469C10.0073 4.48469 11.6364 6.11378 11.6364 8.12105C11.6364 10.1283 10.0073 11.7574 8 11.7574ZM8 5.93923C6.79273 5.93923 5.81818 6.91378 5.81818 8.12105C5.81818 9.32832 6.79273 10.3029 8 10.3029C9.20727 10.3029 10.1818 9.32832 10.1818 8.12105C10.1818 6.91378 9.20727 5.93923 8 5.93923Z" fill="#4D4D4D"/>
</svg>
